<svg viewBox="0 0 173 42" fill="none" xmlns="http://www.w3.org/2000/svg">
<path d="M31.7441 41.792C27.4347 41.792 23.0826 40.5333 18.688 38.016C16 39.2533 13.44 39.872 11.008 39.872C8.66133 39.872 6.35733 39.36 4.096 38.336C1.36533 37.0133 0 35.3067 0 33.216C0 31.7653 0.576 30.592 1.728 29.696C2.79467 28.8853 4.07467 28.48 5.568 28.48C9.152 28.48 12.48 29.8667 15.552 32.64C16.32 33.3653 17.0026 33.984 17.6 34.496C18.1973 35.008 18.7093 35.4347 19.136 35.776C21.184 34.112 23.1894 31.6373 25.1521 28.352C25.9627 26.944 26.7521 25.536 27.5201 24.128C28.2881 22.72 29.0561 21.312 29.8241 19.904C26.0694 19.648 22.7627 18.7307 19.9041 17.152C16.2347 15.1467 14.4001 12.5013 14.4001 9.216C14.4001 6.656 15.2961 4.48 17.0881 2.688C18.8801 0.896 21.0561 0 23.6161 0C25.2374 0 26.6453 0.405333 27.84 1.216C29.1626 2.19733 29.8241 3.456 29.8241 4.992C29.8241 5.58933 29.6321 5.888 29.2481 5.888C29.0774 5.888 28.9921 5.54667 28.9921 4.864C28.9921 4.77867 28.9706 4.65067 28.928 4.48C28.8853 4.30933 28.8213 4.096 28.736 3.84C27.968 1.664 26.2826 0.575996 23.68 0.575996C21.5466 0.575996 19.6906 1.49333 18.112 3.328C16.576 5.12 15.8081 7.08267 15.8081 9.216C15.8081 12.288 17.5146 14.7627 20.928 16.64C23.616 18.1333 26.7093 18.9867 30.208 19.2C31.5733 16.8107 32.9601 14.6347 34.3681 12.672C35.8187 10.6667 37.2694 8.85333 38.7201 7.232C43.0721 2.45333 47.0187 0.063999 50.5601 0.063999C51.7974 0.063999 52.8427 0.341333 53.6961 0.896C54.6774 1.536 55.1681 2.432 55.1681 3.584C55.1681 5.248 54.1867 7.296 52.2241 9.728C51.4987 10.624 50.7094 11.4773 49.8561 12.288C49.0027 13.0987 48.0854 13.8667 47.1041 14.592C46.2934 15.232 45.4401 15.808 44.5441 16.32C43.6907 16.832 42.7947 17.3227 41.8561 17.792C39.8081 18.7733 37.4827 19.4133 34.8801 19.712C33.0881 23.808 31.2107 27.0933 29.2481 29.568C26.9014 32.5547 24.0427 35.008 20.6721 36.928C24.6401 39.744 28.4587 41.152 32.1281 41.152C34.0907 41.152 35.7974 40.768 37.2481 40C39.0401 39.0187 39.9361 37.632 39.9361 35.84C39.9361 35.584 40.0214 35.456 40.1921 35.456C40.3627 35.456 40.448 35.6053 40.448 35.904V36.096C40.448 37.9733 39.6587 39.3813 38.08 40.32C36.5441 41.3013 34.4321 41.792 31.7441 41.792ZM35.2641 18.88C36.3307 18.7093 37.3761 18.496 38.4001 18.24C39.4241 17.984 40.4267 17.664 41.4081 17.28C42.2614 16.9387 43.0934 16.5333 43.9041 16.064C44.7147 15.5947 45.5254 15.0613 46.3361 14.464C48.1707 13.0987 49.8347 11.4773 51.3281 9.6C53.2907 7.25333 54.2721 5.248 54.2721 3.584C54.2721 2.21867 53.5681 1.536 52.1601 1.536C51.0081 1.536 49.6427 1.94133 48.0641 2.752C45.5467 4.07467 43.2854 5.952 41.2801 8.384C39.2747 10.816 37.5041 13.7813 35.9681 17.28L35.2641 18.88ZM10.368 39.04C12.928 39.04 15.2321 38.4213 17.2801 37.184C16.1707 36.4587 15.0614 35.7333 13.9521 35.008C12.8427 34.2827 11.7334 33.5787 10.6241 32.896C7.46667 30.9333 5.14133 29.952 3.648 29.952C1.728 29.952 0.768 30.8267 0.768 32.576C0.768 34.2827 1.70667 35.776 3.584 37.056C5.16267 38.1227 6.86933 38.7627 8.704 38.976C9.00267 39.0187 9.28 39.04 9.536 39.04C9.83465 39.04 10.112 39.04 10.368 39.04Z" fill="white"/>
<path d="M54.6989 40.4602C53.4545 40.4602 52.3253 40.2258 51.3111 39.7571C50.2969 39.2798 49.4915 38.5937 48.8949 37.6989C48.2983 36.7955 48 35.7045 48 34.4261C48 33.3011 48.2216 32.3892 48.6648 31.6903C49.108 30.983 49.7003 30.429 50.4418 30.0284C51.1832 29.6278 52.0014 29.3295 52.8963 29.1335C53.7997 28.929 54.7074 28.767 55.6193 28.6477C56.8125 28.4943 57.7798 28.3793 58.5213 28.3026C59.2713 28.2173 59.8168 28.0767 60.1577 27.8807C60.5071 27.6847 60.6818 27.3437 60.6818 26.8579V26.7557C60.6818 25.4943 60.3366 24.5142 59.6463 23.8153C58.9645 23.1165 57.929 22.767 56.5398 22.767C55.0994 22.767 53.9702 23.0824 53.152 23.7131C52.3338 24.3437 51.7585 25.017 51.4261 25.7329L48.5625 24.7102C49.0739 23.517 49.7557 22.5881 50.608 21.9233C51.4688 21.25 52.4063 20.7812 53.4205 20.517C54.4432 20.2443 55.4489 20.108 56.4375 20.108C57.0682 20.108 57.7926 20.1847 58.6108 20.3381C59.4375 20.4829 60.2344 20.7855 61.0014 21.2457C61.777 21.706 62.4204 22.4006 62.9318 23.3295C63.4432 24.2585 63.6989 25.5028 63.6989 27.0625V40H60.6818V37.3409H60.5284C60.3239 37.767 59.9829 38.223 59.5057 38.7088C59.0284 39.1946 58.3935 39.608 57.6008 39.9489C56.8082 40.2898 55.8409 40.4602 54.6989 40.4602ZM55.1591 37.75C56.3523 37.75 57.3579 37.5156 58.1761 37.0469C59.0028 36.5781 59.625 35.973 60.0426 35.2315C60.4687 34.4901 60.6818 33.7102 60.6818 32.892V30.1307C60.554 30.2841 60.2727 30.4247 59.8381 30.5526C59.4119 30.6719 58.9176 30.7784 58.3551 30.8722C57.8011 30.9574 57.2599 31.0341 56.7315 31.1023C56.2116 31.1619 55.7898 31.2131 55.4659 31.2557C54.6818 31.358 53.9489 31.5241 53.2671 31.7543C52.5938 31.9758 52.0483 32.3125 51.6307 32.7642C51.2216 33.2074 51.0171 33.8125 51.0171 34.5795C51.0171 35.6278 51.4048 36.4205 52.1804 36.9574C52.9645 37.4858 53.9574 37.75 55.1591 37.75ZM79.5454 20.3636V22.9204H69.3692V20.3636H79.5454ZM72.3351 15.6591H75.3522V34.375C75.3522 35.2273 75.4758 35.8665 75.7229 36.2926C75.9786 36.7102 76.3025 36.9915 76.6945 37.1364C77.0951 37.2727 77.517 37.3409 77.9601 37.3409C78.2925 37.3409 78.5653 37.3239 78.7783 37.2898C78.9914 37.2472 79.1619 37.2131 79.2897 37.1875L79.9033 39.8977C79.6988 39.9744 79.4133 40.0511 79.0468 40.1278C78.6803 40.2131 78.2158 40.2557 77.6533 40.2557C76.8011 40.2557 75.9658 40.0724 75.1476 39.706C74.338 39.3395 73.6647 38.7812 73.1278 38.0312C72.5994 37.2812 72.3351 36.3352 72.3351 35.1932V15.6591ZM94.4235 20.3636V22.9204H84.2474V20.3636H94.4235ZM87.2133 15.6591H90.2303V34.375C90.2303 35.2273 90.3539 35.8665 90.6011 36.2926C90.8567 36.7102 91.1806 36.9915 91.5726 37.1364C91.9732 37.2727 92.3951 37.3409 92.8383 37.3409C93.1707 37.3409 93.4434 37.3239 93.6565 37.2898C93.8695 37.2472 94.04 37.2131 94.1678 37.1875L94.7815 39.8977C94.5769 39.9744 94.2914 40.0511 93.9249 40.1278C93.5584 40.2131 93.094 40.2557 92.5315 40.2557C91.6792 40.2557 90.844 40.0724 90.0258 39.706C89.2161 39.3395 88.5428 38.7812 88.0059 38.0312C87.4775 37.2812 87.2133 36.3352 87.2133 35.1932V15.6591ZM108.784 40.4091C106.892 40.4091 105.26 39.9915 103.888 39.1562C102.524 38.3125 101.471 37.1364 100.73 35.6278C99.9969 34.1108 99.6305 32.3466 99.6305 30.3352C99.6305 28.3239 99.9969 26.5511 100.73 25.017C101.471 23.4744 102.503 22.2727 103.824 21.4119C105.153 20.5426 106.704 20.108 108.477 20.108C109.5 20.108 110.51 20.2784 111.507 20.6193C112.504 20.9602 113.412 21.5142 114.23 22.2812C115.048 23.0398 115.7 24.0455 116.186 25.2983C116.672 26.5511 116.915 28.0937 116.915 29.9261V31.2045H101.778V28.5966H113.846C113.846 27.4886 113.625 26.5 113.182 25.6307C112.747 24.7614 112.125 24.0753 111.315 23.5724C110.514 23.0696 109.568 22.8182 108.477 22.8182C107.275 22.8182 106.236 23.1165 105.358 23.7131C104.488 24.3011 103.819 25.0682 103.351 26.0142C102.882 26.9602 102.648 27.9744 102.648 29.0568V30.7955C102.648 32.2784 102.903 33.5355 103.415 34.5668C103.934 35.5895 104.655 36.3693 105.575 36.9062C106.496 37.4347 107.565 37.6989 108.784 37.6989C109.577 37.6989 110.292 37.5881 110.932 37.3665C111.579 37.1364 112.138 36.7955 112.606 36.3437C113.075 35.8835 113.437 35.3125 113.693 34.6307L116.608 35.4489C116.301 36.4375 115.785 37.3068 115.061 38.0568C114.336 38.7983 113.442 39.3778 112.376 39.7955C111.311 40.2045 110.113 40.4091 108.784 40.4091ZM122.959 13.8182L130.732 35.858H131.038L138.811 13.8182H142.135L132.521 40H129.249L119.635 13.8182H122.959ZM147.604 40V20.3636H150.621V40H147.604ZM149.139 17.0909C148.55 17.0909 148.043 16.8906 147.617 16.4901C147.2 16.0895 146.991 15.608 146.991 15.0455C146.991 14.483 147.2 14.0014 147.617 13.6009C148.043 13.2003 148.55 13 149.139 13C149.727 13 150.229 13.2003 150.647 13.6009C151.073 14.0014 151.286 14.483 151.286 15.0455C151.286 15.608 151.073 16.0895 150.647 16.4901C150.229 16.8906 149.727 17.0909 149.139 17.0909ZM157.385 40V37.6989L168.533 23.3807V23.1761H157.743V20.3636H172.419V22.767L161.578 36.983V37.1875H172.777V40H157.385Z" fill="white"/>
</svg>
