<svg width="20" height="15" viewBox="0 0 20 15" fill="none" xmlns="http://www.w3.org/2000/svg">
<path d="M17.5002 4.66669C16.2918 4.66669 15.6168 5.86669 15.8918 6.75835L12.9335 9.72502C12.6835 9.65002 12.3168 9.65002 12.0668 9.72502L9.94183 7.60002C10.2252 6.70835 9.55016 5.50002 8.3335 5.50002C7.12516 5.50002 6.44183 6.70002 6.72516 7.60002L2.92516 11.3917C2.0335 11.1167 0.833496 11.7917 0.833496 13C0.833496 13.9167 1.5835 14.6667 2.50016 14.6667C3.7085 14.6667 4.3835 13.4667 4.1085 12.575L7.90016 8.77502C8.15016 8.85002 8.51683 8.85002 8.76683 8.77502L10.8918 10.9C10.6085 11.7917 11.2835 13 12.5002 13C13.7085 13 14.3918 11.8 14.1085 10.9L17.0752 7.94169C17.9668 8.21669 19.1668 7.54169 19.1668 6.33335C19.1668 5.41669 18.4168 4.66669 17.5002 4.66669Z" fill="white"/>
<path d="M12.5 5.5L13.2833 3.775L15 3L13.2833 2.225L12.5 0.5L11.7333 2.225L10 3L11.7333 3.775L12.5 5.5Z" fill="white"/>
<path d="M2.91683 7.16667L3.3335 5.5L5.00016 5.08333L3.3335 4.66667L2.91683 3L2.50016 4.66667L0.833496 5.08333L2.50016 5.5L2.91683 7.16667Z" fill="white"/>
</svg>
