<svg viewBox="0 0 18 12" fill="none" xmlns="http://www.w3.org/2000/svg">
<path d="M6.49984 7.45835C4.54984 7.45835 0.666504 8.43335 0.666504 10.375V11.8334H12.3332V10.375C12.3332 8.43335 8.44984 7.45835 6.49984 7.45835ZM2.6165 10.1667C3.3165 9.68335 5.00817 9.12502 6.49984 9.12502C7.9915 9.12502 9.68317 9.68335 10.3832 10.1667H2.6165ZM6.49984 6.00002C8.10817 6.00002 9.4165 4.69169 9.4165 3.08335C9.4165 1.47502 8.10817 0.166687 6.49984 0.166687C4.8915 0.166687 3.58317 1.47502 3.58317 3.08335C3.58317 4.69169 4.8915 6.00002 6.49984 6.00002ZM6.49984 1.83335C7.1915 1.83335 7.74984 2.39169 7.74984 3.08335C7.74984 3.77502 7.1915 4.33335 6.49984 4.33335C5.80817 4.33335 5.24984 3.77502 5.24984 3.08335C5.24984 2.39169 5.80817 1.83335 6.49984 1.83335ZM12.3665 7.50835C13.3332 8.20835 13.9998 9.14169 13.9998 10.375V11.8334H17.3332V10.375C17.3332 8.69169 14.4165 7.73335 12.3665 7.50835ZM11.4998 6.00002C13.1082 6.00002 14.4165 4.69169 14.4165 3.08335C14.4165 1.47502 13.1082 0.166687 11.4998 0.166687C11.0498 0.166687 10.6332 0.27502 10.2498 0.458354C10.7748 1.20002 11.0832 2.10835 11.0832 3.08335C11.0832 4.05835 10.7748 4.96669 10.2498 5.70835C10.6332 5.89169 11.0498 6.00002 11.4998 6.00002Z" fill="white"/>
</svg>
